<svg xmlns="http://www.w3.org/2000/svg" viewBox="46 104 208 194" role="img" aria-label="Gillette Stadium, Boston, USA">
  <defs>
    <style>
    .struct{fill:none;stroke:#1E2A38;stroke-width:2.5;stroke-linejoin:round;stroke-linecap:round}
    .thin{fill:none;stroke:#1E2A38;stroke-width:1.5;stroke-linejoin:round;stroke-linecap:round}
    .hair{fill:none;stroke:#1E2A38;stroke-width:1;stroke-linecap:round;opacity:.55}
    .concrete{fill:#E7EBF0}
    .stands{fill:#CDD6E0}
    .canopy{fill:#EDF0F4}
    .void{fill:#FFFFFF}
    .pitch{fill:#3D9A6A}
    .pline{fill:none;stroke:#FFFFFF;stroke-width:1.5;opacity:.9}
    .acc{fill:#E1593A}
    .accs{fill:none;stroke:#E1593A;stroke-width:2}
    .green{fill:#6FB98F}
    .ribs{fill:none;stroke:#B7C0CC;stroke-width:16;stroke-dasharray:3 9}
    .louver{fill:none;stroke:#B7C0CC;stroke-width:13;stroke-dasharray:2 5}
</style>
    <pattern id="frit" width="9" height="9" patternUnits="userSpaceOnUse">
      <circle cx="2" cy="2" r="0.9" fill="#C7D0DA"/>
    </pattern>
  </defs>
  <g>
    <rect x="56" y="160" width="188" height="128" rx="26" class="stands"/>
    <rect x="56" y="160" width="188" height="128" rx="26" class="struct"/>
    <rect x="80" y="180" width="140" height="88" rx="18" class="concrete"/>
    <rect x="80" y="180" width="140" height="88" rx="18" class="thin"/>
    <rect x="98" y="197" width="104" height="54" rx="10" class="pitch"/>
    <line x1="150" y1="197" x2="150" y2="251" class="pline"/>
    <rect x="98" y="214" width="12" height="20" class="pline"/>
    <rect x="190" y="214" width="12" height="20" class="pline"/>
    <circle cx="150" cy="224" r="9" class="accs"/>
    <rect x="96" y="154" width="108" height="12" rx="4" class="concrete"/>
    <rect x="96" y="154" width="108" height="12" rx="4" class="thin"/>
    <path d="M145,150 L155,150 L153,128 L147,128 Z" class="concrete"/>
    <path d="M145,150 L155,150 L153,128 L147,128 Z" class="thin"/>
    <circle cx="150" cy="124" r="4.5" class="acc"/>
    <circle cx="150" cy="124" r="9" class="accs"/>
  </g>
</svg>
