<svg xmlns="http://www.w3.org/2000/svg" viewBox="46 142 208 160" role="img" aria-label="Hard Rock Stadium, Miami, USA">
  <defs>
    <style>
    .struct{fill:none;stroke:#1E2A38;stroke-width:2.5;stroke-linejoin:round;stroke-linecap:round}
    .thin{fill:none;stroke:#1E2A38;stroke-width:1.5;stroke-linejoin:round;stroke-linecap:round}
    .hair{fill:none;stroke:#1E2A38;stroke-width:1;stroke-linecap:round;opacity:.55}
    .concrete{fill:#E7EBF0}
    .stands{fill:#CDD6E0}
    .canopy{fill:#EDF0F4}
    .void{fill:#FFFFFF}
    .pitch{fill:#3D9A6A}
    .pline{fill:none;stroke:#FFFFFF;stroke-width:1.5;opacity:.9}
    .acc{fill:#E1593A}
    .accs{fill:none;stroke:#E1593A;stroke-width:2}
    .green{fill:#6FB98F}
    .ribs{fill:none;stroke:#B7C0CC;stroke-width:16;stroke-dasharray:3 9}
    .louver{fill:none;stroke:#B7C0CC;stroke-width:13;stroke-dasharray:2 5}
</style>
    <pattern id="frit" width="9" height="9" patternUnits="userSpaceOnUse">
      <circle cx="2" cy="2" r="0.9" fill="#C7D0DA"/>
    </pattern>
  </defs>
  <g>
    <rect x="56" y="152" width="188" height="140" rx="26" class="canopy"/>
    <rect x="56" y="152" width="188" height="140" rx="26" class="struct"/>
    <rect x="96" y="182" width="108" height="80" rx="14" class="void"/>
    <rect x="96" y="182" width="108" height="80" rx="14" class="thin"/>
    <rect x="102" y="192" width="96" height="60" rx="10" class="pitch"/>
    <line x1="150" y1="192" x2="150" y2="252" class="pline"/>
    <rect x="102" y="212" width="12" height="20" class="pline"/>
    <rect x="186" y="212" width="12" height="20" class="pline"/>
    <circle cx="150" cy="222" r="9" class="accs"/>
    <rect x="61" y="157" width="10" height="10" rx="2" transform="rotate(45 66 162)" class="acc"/>
    <rect x="229" y="157" width="10" height="10" rx="2" transform="rotate(45 234 162)" class="acc"/>
    <rect x="61" y="277" width="10" height="10" rx="2" transform="rotate(45 66 282)" class="acc"/>
    <rect x="229" y="277" width="10" height="10" rx="2" transform="rotate(45 234 282)" class="acc"/>
  </g>
</svg>
