<svg xmlns="http://www.w3.org/2000/svg" viewBox="28 132 236 180" role="img" aria-label="Levi's Stadium, San Francisco Bay Area, USA">
  <defs>
    <style>
    .struct{fill:none;stroke:#1E2A38;stroke-width:2.5;stroke-linejoin:round;stroke-linecap:round}
    .thin{fill:none;stroke:#1E2A38;stroke-width:1.5;stroke-linejoin:round;stroke-linecap:round}
    .hair{fill:none;stroke:#1E2A38;stroke-width:1;stroke-linecap:round;opacity:.55}
    .concrete{fill:#E7EBF0}
    .stands{fill:#CDD6E0}
    .canopy{fill:#EDF0F4}
    .void{fill:#FFFFFF}
    .pitch{fill:#3D9A6A}
    .pline{fill:none;stroke:#FFFFFF;stroke-width:1.5;opacity:.9}
    .acc{fill:#E1593A}
    .accs{fill:none;stroke:#E1593A;stroke-width:2}
    .green{fill:#6FB98F}
    .ribs{fill:none;stroke:#B7C0CC;stroke-width:16;stroke-dasharray:3 9}
    .louver{fill:none;stroke:#B7C0CC;stroke-width:13;stroke-dasharray:2 5}
</style>
    <pattern id="frit" width="9" height="9" patternUnits="userSpaceOnUse">
      <circle cx="2" cy="2" r="0.9" fill="#C7D0DA"/>
    </pattern>
  </defs>
  <g>
    <ellipse cx="150" cy="222" rx="104" ry="80" class="stands"/>
    <ellipse cx="150" cy="222" rx="104" ry="80" class="struct"/>
    <ellipse cx="150" cy="222" rx="84" ry="61" class="concrete"/>
    <ellipse cx="150" cy="222" rx="84" ry="61" class="thin"/>
    <rect x="101" y="194" width="98" height="56" rx="10" class="pitch"/>
    <line x1="150" y1="194" x2="150" y2="250" class="pline"/>
    <rect x="101" y="212" width="12" height="20" class="pline"/>
    <rect x="187" y="212" width="12" height="20" class="pline"/>
    <circle cx="150" cy="222" r="9" class="accs"/>
    <rect x="38" y="168" width="34" height="108" rx="8" class="concrete"/>
    <rect x="38" y="168" width="34" height="108" rx="8" class="struct"/>
    <rect x="44" y="176" width="22" height="92" rx="5" class="green"/>
    <rect x="44" y="176" width="22" height="92" rx="5" class="thin"/>
  </g>
</svg>
