<svg xmlns="http://www.w3.org/2000/svg" viewBox="46 138 208 168" role="img" aria-label="Lincoln Financial Field, Philadelphia, USA">
  <defs>
    <style>
    .struct{fill:none;stroke:#1E2A38;stroke-width:2.5;stroke-linejoin:round;stroke-linecap:round}
    .thin{fill:none;stroke:#1E2A38;stroke-width:1.5;stroke-linejoin:round;stroke-linecap:round}
    .hair{fill:none;stroke:#1E2A38;stroke-width:1;stroke-linecap:round;opacity:.55}
    .concrete{fill:#E7EBF0}
    .stands{fill:#CDD6E0}
    .canopy{fill:#EDF0F4}
    .void{fill:#FFFFFF}
    .pitch{fill:#3D9A6A}
    .pline{fill:none;stroke:#FFFFFF;stroke-width:1.5;opacity:.9}
    .acc{fill:#E1593A}
    .accs{fill:none;stroke:#E1593A;stroke-width:2}
    .green{fill:#6FB98F}
    .ribs{fill:none;stroke:#B7C0CC;stroke-width:16;stroke-dasharray:3 9}
    .louver{fill:none;stroke:#B7C0CC;stroke-width:13;stroke-dasharray:2 5}
</style>
    <pattern id="frit" width="9" height="9" patternUnits="userSpaceOnUse">
      <circle cx="2" cy="2" r="0.9" fill="#C7D0DA"/>
    </pattern>
  </defs>
  <g>
    <rect x="56" y="158" width="188" height="128" rx="30" class="stands"/>
    <rect x="56" y="158" width="188" height="128" rx="30" class="struct"/>
    <rect x="95" y="193" width="110" height="58" rx="10" class="pitch"/>
    <line x1="150" y1="193" x2="150" y2="251" class="pline"/>
    <rect x="95" y="212" width="12" height="20" class="pline"/>
    <rect x="193" y="212" width="12" height="20" class="pline"/>
    <circle cx="150" cy="222" r="9" class="accs"/>
    <path d="M70,168 L150,148 L230,168 L230,176 L150,160 L70,176 Z" class="canopy"/>
    <path d="M70,168 L150,148 L230,168" class="thin"/>
    <path d="M70,276 L150,296 L230,276 L230,268 L150,284 L70,268 Z" class="canopy"/>
    <path d="M70,276 L150,296 L230,276" class="thin"/>
  </g>
</svg>
