<svg xmlns="http://www.w3.org/2000/svg" viewBox="46 144 208 162" role="img" aria-label="NRG Stadium, Houston, USA">
  <defs>
    <style>
    .struct{fill:none;stroke:#1E2A38;stroke-width:2.5;stroke-linejoin:round;stroke-linecap:round}
    .thin{fill:none;stroke:#1E2A38;stroke-width:1.5;stroke-linejoin:round;stroke-linecap:round}
    .hair{fill:none;stroke:#1E2A38;stroke-width:1;stroke-linecap:round;opacity:.55}
    .concrete{fill:#E7EBF0}
    .stands{fill:#CDD6E0}
    .canopy{fill:#EDF0F4}
    .void{fill:#FFFFFF}
    .pitch{fill:#3D9A6A}
    .pline{fill:none;stroke:#FFFFFF;stroke-width:1.5;opacity:.9}
    .acc{fill:#E1593A}
    .accs{fill:none;stroke:#E1593A;stroke-width:2}
    .green{fill:#6FB98F}
    .ribs{fill:none;stroke:#B7C0CC;stroke-width:16;stroke-dasharray:3 9}
    .louver{fill:none;stroke:#B7C0CC;stroke-width:13;stroke-dasharray:2 5}
</style>
    <pattern id="frit" width="9" height="9" patternUnits="userSpaceOnUse">
      <circle cx="2" cy="2" r="0.9" fill="#C7D0DA"/>
    </pattern>
  </defs>
  <g>
    <path d="M80,154 L220,154 Q236,154 238,168 L244,290 Q244,296 238,296 L62,296 Q56,296 56,290 L62,168 Q64,154 80,154 Z" class="concrete"/>
    <path d="M80,154 L220,154 Q236,154 238,168 L244,290 Q244,296 238,296 L62,296 Q56,296 56,290 L62,168 Q64,154 80,154 Z" class="struct"/>
    <rect x="104" y="188" width="92" height="68" rx="10" class="void"/>
    <rect x="104" y="188" width="92" height="68" rx="10" class="thin"/>
    <rect x="104" y="195" width="92" height="54" rx="10" class="pitch"/>
    <line x1="150" y1="195" x2="150" y2="249" class="pline"/>
    <rect x="104" y="212" width="12" height="20" class="pline"/>
    <rect x="184" y="212" width="12" height="20" class="pline"/>
    <circle cx="150" cy="222" r="9" class="accs"/>
    <line x1="56" y1="222" x2="104" y2="222" class="thin"/>
    <line x1="196" y1="222" x2="244" y2="222" class="thin"/>
  </g>
</svg>
